<svg width="20" height="20" viewBox="0 0 20 20" fill="none" xmlns="http://www.w3.org/2000/svg">
<path d="M13.57 3.21303e-07C12.5663 -0.000257109 11.5764 0.234641 10.6798 0.685869C9.78318 1.1371 9.0047 1.79211 8.40677 2.59841C7.80884 3.40471 7.40807 4.33988 7.2366 5.32898C7.06512 6.31808 7.1277 7.33359 7.41932 8.29414L0 15.7143V20H4.28528L11.7046 12.5799C12.5887 12.8483 13.5204 12.923 14.436 12.7988C15.3516 12.6746 16.2297 12.3545 17.0104 11.8602C17.7911 11.3659 18.4561 10.709 18.96 9.93445C19.4639 9.15987 19.7949 8.28574 19.9305 7.37164C20.066 6.45754 20.0029 5.52496 19.7455 4.63745C19.488 3.74995 19.0423 2.92839 18.4386 2.22876C17.835 1.52913 17.0876 0.96788 16.2474 0.583265C15.4073 0.198649 14.4941 -0.000291827 13.57 3.21303e-07ZM13.57 11.4286C13.0783 11.4283 12.5892 11.3555 12.1186 11.2127L11.2996 10.9643L10.6945 11.5694L8.4225 13.8417L7.43789 12.8571L6.42792 13.8672L7.4126 14.8519L6.27993 15.9848L5.29525 15L4.28528 16.0101L5.26996 16.9948L3.69362 18.5714H1.42843V16.306L8.42936 9.30436L9.03444 8.69907L8.78639 7.88C8.48112 6.87356 8.50096 5.79648 8.84307 4.80196C9.18519 3.80744 9.83216 2.94614 10.692 2.34057C11.5518 1.735 12.5806 1.416 13.6322 1.42895C14.6837 1.4419 15.7044 1.78614 16.549 2.4127C17.3937 3.03926 18.0192 3.91623 18.3368 4.91887C18.6543 5.92151 18.6476 6.99876 18.3176 7.99738C17.9877 8.99599 17.3513 9.86513 16.4989 10.4811C15.6466 11.0972 14.6217 11.4287 13.57 11.4286Z" fill="#676767"/>
</svg>
